<svg id="visual" viewBox="0 0 900 600" width="900" height="600" xmlns="http://www.w3.org/2000/svg" xmlns:xlink="http://www.w3.org/1999/xlink" version="1.1">
	<path d="M0 169L129 127L257 139L386 163L514 139L643 121L771 121L900 127L900 0L771 0L643 0L514 0L386 0L257 0L129 0L0 0Z" fill="#0066ff">
	</path>
	<path d="M0 427L129 403L257 391L386 391L514 415L643 373L771 325L900 403L900 125L771 119L643 119L514 137L386 161L257 137L129 125L0 167Z" fill="#008cff">
	</path>
	<path d="M0 601L129 601L257 601L386 601L514 601L643 601L771 601L900 601L900 401L771 323L643 371L514 413L386 389L257 389L129 401L0 425Z" fill="#4facf7">
	</path>
</svg>
