<?xml version="1.0" encoding="UTF-8"?>
<!DOCTYPE svg PUBLIC "-//W3C//DTD SVG 1.1//EN" "http://www.w3.org/Graphics/SVG/1.1/DTD/svg11.dtd">
<svg xmlns="http://www.w3.org/2000/svg" version="1.1" width="122px" height="96px" style="shape-rendering:geometricPrecision; text-rendering:geometricPrecision; image-rendering:optimizeQuality; fill-rule:evenodd; clip-rule:evenodd" xmlns:xlink="http://www.w3.org/1999/xlink">
	<g>
		<path style="opacity:1" fill="aaa" fill-opacity="0" d="M -0.5,-0.5 C 40.1667,-0.5 80.8333,-0.5 121.5,-0.5C 121.5,31.5 121.5,63.5 121.5,95.5C 80.8333,95.5 40.1667,95.5 -0.5,95.5C -0.5,63.5 -0.5,31.5 -0.5,-0.5 Z" />
	</g>
	<g>
		<path style="opacity:1" fill="#c1d2cc" d="M 29.5,2.5 C 33.6463,1.35303 37.9796,1.18636 42.5,2C 43.4158,2.27842 44.0825,2.77842 44.5,3.5C 39.5365,2.74595 34.5365,2.41262 29.5,2.5 Z" />
	</g>
	<g>
		<path style="opacity:1" fill="#bdd0ca" d="M 91.5,2.5 C 86.7858,2.35307 82.1191,2.6864 77.5,3.5C 77.6107,2.88258 77.944,2.38258 78.5,2C 83.0204,1.18636 87.3537,1.35303 91.5,2.5 Z" />
	</g>
	<g>
		<path style="opacity:1" fill="#5a8e80" d="M 29.5,2.5 C 34.5365,2.41262 39.5365,2.74595 44.5,3.5C 50.127,5.05952 55.627,7.05952 61,9.5C 66.0218,6.21466 71.5218,4.21466 77.5,3.5C 82.1191,2.6864 86.7858,2.35307 91.5,2.5C 91.1517,9.47136 91.8184,16.3047 93.5,23C 92.0582,27.6986 91.3915,32.532 91.5,37.5C 93.1439,37.2865 94.6439,37.6198 96,38.5C 97.5426,42.4964 98.7093,46.6631 99.5,51C 99.4148,52.1074 99.0814,53.1074 98.5,54C 96.3415,54.912 94.1748,55.7454 92,56.5C 91.5045,58.4727 91.3379,60.4727 91.5,62.5C 80.4973,61.9004 70.1639,64.2337 60.5,69.5C 50.8322,64.2769 40.4989,61.9436 29.5,62.5C 29.5,60.5 29.5,58.5 29.5,56.5C 25.2481,56.7254 22.5814,54.8921 21.5,51C 22.2907,46.6631 23.4574,42.4964 25,38.5C 26.3561,37.6198 27.8561,37.2865 29.5,37.5C 29.6085,32.532 28.9418,27.6986 27.5,23C 29.1816,16.3047 29.8483,9.47136 29.5,2.5 Z" />
	</g>
	<g>
		<path style="opacity:1" fill="#edf0ed" d="M 57.5,22.5 C 63.2906,21.7214 66.2906,24.2214 66.5,30C 65.098,33.2386 63.098,36.0719 60.5,38.5C 57.902,36.0719 55.902,33.2386 54.5,30C 54.9776,27.2202 55.9776,24.7202 57.5,22.5 Z" />
	</g>
	<g>
		<path style="opacity:1" fill="#f0f2ef" d="M 76.5,11.5 C 87.8479,11.6845 92.3479,17.3511 90,28.5C 85.7066,35.5191 79.8733,37.1858 72.5,33.5C 64.8417,24.4246 66.175,17.0913 76.5,11.5 Z" />
	</g>
	<g>
		<path style="opacity:1" fill="#568b7d" d="M 76.5,18.5 C 77.5,18.5 78.5,18.5 79.5,18.5C 78.8307,22.6759 80.3307,24.0093 84,22.5C 83.2693,28.5936 80.2693,29.927 75,26.5C 74.1093,23.5024 74.6093,20.8357 76.5,18.5 Z" />
	</g>
	<g>
		<path style="opacity:1" fill="#f0f2ef" d="M 38.5,11.5 C 50.5404,12.0238 55.0404,18.0238 52,29.5C 45.6841,37.0399 39.0174,37.3733 32,30.5C 28.3428,21.9499 30.5095,15.6165 38.5,11.5 Z" />
	</g>
	<g>
		<path style="opacity:1" fill="#588c7e" d="M 39.5,18.5 C 40.5,18.5 41.5,18.5 42.5,18.5C 42.5,20.1667 42.5,21.8333 42.5,23.5C 43.8221,23.67 44.9887,23.3366 46,22.5C 46.6643,27.4964 44.4977,29.3297 39.5,28C 35.5808,24.8397 35.5808,21.673 39.5,18.5 Z" />
	</g>
	<g>
		<path style="opacity:1" fill="#ebeeeb" d="M 32.5,4.5 C 41.8835,5.40654 50.8835,7.73987 59.5,11.5C 59.9071,18.0486 60.9071,18.0486 62.5,11.5C 70.6895,7.39542 79.3561,5.06209 88.5,4.5C 88.6641,7.1873 88.4974,9.85397 88,12.5C 80.297,7.95048 73.297,8.95048 67,15.5C 65.9914,17.0249 65.4914,18.6916 65.5,20.5C 62.1667,20.5 58.8333,20.5 55.5,20.5C 53.7601,12.9427 48.9268,9.27602 41,9.5C 37.7997,9.14653 35.133,10.1465 33,12.5C 32.5026,9.85397 32.3359,7.1873 32.5,4.5 Z" />
	</g>
	<g>
		<path style="opacity:1" fill="#f2f3f1" d="M 63.5,65.5 C 62.5104,59.69 62.1771,53.69 62.5,47.5C 61.1667,47.5 59.8333,47.5 58.5,47.5C 58.8229,53.69 58.4896,59.69 57.5,65.5C 49.5737,61.8591 41.2404,59.8591 32.5,59.5C 32.9209,57.0901 34.2542,55.2568 36.5,54C 39.5,52.3333 42.5,50.6667 45.5,49C 47.607,47.7365 48.607,45.9032 48.5,43.5C 43.4287,42.3102 38.4287,40.8102 33.5,39C 32.26,35.3859 33.26,34.7192 36.5,37C 42.4383,38.3778 47.7717,37.2111 52.5,33.5C 55.1667,36.5 57.8333,39.5 60.5,42.5C 63.1667,39.5 65.8333,36.5 68.5,33.5C 74.3528,38.0028 80.6862,38.6695 87.5,35.5C 88.731,36.6507 88.731,37.8173 87.5,39C 82.0145,40.0448 77.0145,42.0448 72.5,45C 73.1007,46.605 74.1007,47.9384 75.5,49C 79.367,51.6979 83.367,54.1979 87.5,56.5C 88.3857,57.325 88.719,58.325 88.5,59.5C 79.6423,59.4702 71.309,61.4702 63.5,65.5 Z" />
	</g>
	<g>
		<path style="opacity:1" fill="#e3e9e6" d="M 26.5,40.5 C 33.128,41.4329 39.4613,43.2662 45.5,46C 39.2796,46.2105 33.2796,45.0438 27.5,42.5C 26.7025,42.0431 26.3691,41.3764 26.5,40.5 Z" />
	</g>
	<g>
		<path style="opacity:1" fill="#e3e9e6" d="M 89.5,40.5 C 91.288,40.2148 92.9547,40.5481 94.5,41.5C 88.5436,44.7395 82.2103,46.2395 75.5,46C 80.1258,43.8537 84.7925,42.0203 89.5,40.5 Z" />
	</g>
	<g>
		<path style="opacity:1" fill="#e4eae7" d="M 90.5,45.5 C 92.288,45.2148 93.9547,45.5481 95.5,46.5C 91.377,48.9982 87.0437,49.9982 82.5,49.5C 85.1479,47.9618 87.8146,46.6285 90.5,45.5 Z" />
	</g>
	<g>
		<path style="opacity:1" fill="#e0e7e4" d="M 25.5,45.5 C 30.3472,46.2117 35.0138,47.545 39.5,49.5C 34.979,50.5614 30.6456,49.8947 26.5,47.5C 25.7025,47.0431 25.3691,46.3764 25.5,45.5 Z" />
	</g>
	<g>
		<path style="opacity:1" fill="#c2d3cc" d="M 63.5,65.5 C 63.44,66.0431 63.1067,66.3764 62.5,66.5C 61.1667,42.5 59.8333,42.5 58.5,66.5C 57.8933,66.3764 57.56,66.0431 57.5,65.5C 58.4896,59.69 58.8229,53.69 58.5,47.5C 59.8333,47.5 61.1667,47.5 62.5,47.5C 62.1771,53.69 62.5104,59.69 63.5,65.5 Z" />
	</g>
	<g>
		<path style="opacity:1" fill="#dae4df" d="M 23.5,50.5 C 27.2196,50.2961 30.553,51.2961 33.5,53.5C 32.277,54.6139 30.9437,54.7805 29.5,54C 26.8475,53.647 24.8475,52.4803 23.5,50.5 Z" />
	</g>
	<g>
		<path style="opacity:1" fill="#d9e3de" d="M 91.5,50.5 C 93.604,50.2011 95.604,50.5344 97.5,51.5C 95.1292,52.791 92.6292,53.791 90,54.5C 88.9412,54.3699 88.1079,53.8699 87.5,53C 89.0664,52.3918 90.3998,51.5585 91.5,50.5 Z" />
	</g>
	<g>
		<path style="opacity:1" fill="#97a3b3" d="M 78.5,76.5 C 79.8333,76.5 81.1667,76.5 82.5,76.5C 82.5,77.5 82.5,78.5 82.5,79.5C 81.1667,79.5 79.8333,79.5 78.5,79.5C 78.5,78.5 78.5,77.5 78.5,76.5 Z" />
	</g>
	<g>
		<path style="opacity:1" fill="#b9c0cb" d="M 8.5,78.5 C 7.16667,78.5 5.83333,78.5 4.5,78.5C 4.5,83.1667 4.5,87.8333 4.5,92.5C 3.51283,87.6946 3.17949,82.6946 3.5,77.5C 5.41467,77.2155 7.08134,77.5489 8.5,78.5 Z" />
	</g>
	<g>
		<path style="opacity:1" fill="#79899f" d="M 8.5,78.5 C 9.84661,81.1932 11.1799,83.8599 12.5,86.5C 12.7828,87.2891 13.2828,87.9558 14,88.5C 14.1764,85.1182 14.6764,81.7848 15.5,78.5C 16.4933,83.1196 16.8266,87.7863 16.5,92.5C 15.5,92.5 14.5,92.5 13.5,92.5C 11.347,90.2063 9.68034,87.5396 8.5,84.5C 8.21719,83.7109 7.71719,83.0442 7,82.5C 7.08346,86.3113 6.25013,89.6446 4.5,92.5C 4.5,87.8333 4.5,83.1667 4.5,78.5C 5.83333,78.5 7.16667,78.5 8.5,78.5 Z" />
	</g>
	<g>
		<path style="opacity:1" fill="#b6bec9" d="M 13.5,92.5 C 14.5,92.5 15.5,92.5 16.5,92.5C 16.8266,87.7863 16.4933,83.1196 15.5,78.5C 14.6764,81.7848 14.1764,85.1182 14,88.5C 13.2828,87.9558 12.7828,87.2891 12.5,86.5C 13.4767,83.7131 13.81,80.7131 13.5,77.5C 14.8333,77.5 16.1667,77.5 17.5,77.5C 17.5,82.8333 17.5,88.1667 17.5,93.5C 15.901,93.7678 14.5676,93.4345 13.5,92.5 Z" />
	</g>
	<g>
		<path style="opacity:1" fill="#7e8da2" d="M 58.5,76.5 C 58.0573,82.0577 58.7239,87.391 60.5,92.5C 58.396,92.7989 56.396,92.4656 54.5,91.5C 55.6797,89.5458 56.3463,87.3791 56.5,85C 56.4944,82.9674 56.1611,81.134 55.5,79.5C 53.9519,79.1788 53.2852,78.1788 53.5,76.5C 55.1667,76.5 56.8333,76.5 58.5,76.5 Z" />
	</g>
	<g>
		<path style="opacity:1" fill="#d0d4da" d="M 58.5,76.5 C 59.1664,80.6845 59.8331,85.0178 60.5,89.5C 61.4909,85.5546 61.8242,81.5546 61.5,77.5C 63.4147,77.2155 65.0813,77.5489 66.5,78.5C 65.1667,78.5 63.8333,78.5 62.5,78.5C 62.5,83.1667 62.5,87.8333 62.5,92.5C 61.8333,92.5 61.1667,92.5 60.5,92.5C 58.7239,87.391 58.0573,82.0577 58.5,76.5 Z" />
	</g>
	<g>
		<path style="opacity:1" fill="#7e8da2" d="M 62.5,92.5 C 62.5,87.8333 62.5,83.1667 62.5,78.5C 63.8333,78.5 65.1667,78.5 66.5,78.5C 68.3222,81.4721 70.1555,84.4721 72,87.5C 72.4983,84.1832 72.665,80.8499 72.5,77.5C 73.5,77.5 74.5,77.5 75.5,77.5C 75.5,82.5 75.5,87.5 75.5,92.5C 73.712,92.7852 72.0453,92.4519 70.5,91.5C 68.7997,88.9613 67.2997,86.2947 66,83.5C 65.502,86.4816 65.3354,89.4816 65.5,92.5C 64.5,92.5 63.5,92.5 62.5,92.5 Z" />
	</g>
	<g>
		<path style="opacity:1" fill="#a7b1be" d="M 55.5,79.5 C 56.1611,81.134 56.4944,82.9674 56.5,85C 56.3463,87.3791 55.6797,89.5458 54.5,91.5C 56.396,92.4656 58.396,92.7989 60.5,92.5C 58.3926,93.4682 56.0593,93.8016 53.5,93.5C 54.9372,88.9725 55.6039,84.3058 55.5,79.5 Z" />
	</g>
	<g>
		<path style="opacity:1" fill="#7d8da2" d="M 30.5,82.5 C 31.2506,81.4265 32.2506,81.2599 33.5,82C 34.717,83.6477 35.5503,85.481 36,87.5C 37.1145,86.0001 37.9479,84.3334 38.5,82.5C 39.325,81.6143 40.325,81.281 41.5,81.5C 40.3012,85.0986 39.3012,88.7653 38.5,92.5C 36.8561,92.7135 35.3561,92.3802 34,91.5C 33.0997,88.2823 31.933,85.2823 30.5,82.5 Z" />
	</g>
	<g>
		<path style="opacity:1" fill="#808fa4" d="M 84.5,92.5 C 82.076,92.8076 79.7427,92.4742 77.5,91.5C 79.5998,89.2693 79.9331,86.936 78.5,84.5C 76.9519,84.1788 76.2852,83.1788 76.5,81.5C 78.5,81.5 80.5,81.5 82.5,81.5C 82.1868,85.4126 82.8534,89.0793 84.5,92.5 Z" />
	</g>
	<g>
		<path style="opacity:1" fill="#7d8da2" d="M 98.5,85.5 C 98.0826,88.1589 97.0826,90.4922 95.5,92.5C 95.5,87.1667 95.5,81.8333 95.5,76.5C 96.5,76.5 97.5,76.5 98.5,76.5C 98.5,78.1667 98.5,79.8333 98.5,81.5C 100.792,81.2436 102.959,81.5769 105,82.5C 105.498,85.8168 105.665,89.1501 105.5,92.5C 104.5,92.5 103.5,92.5 102.5,92.5C 102.5,89.8333 102.5,87.1667 102.5,84.5C 100.901,84.2322 99.5676,84.5655 98.5,85.5 Z" />
	</g>
	<g>
		<path style="opacity:1" fill="#b5bdc8" d="M 8.5,84.5 C 7.52333,87.2869 7.19,90.2869 7.5,93.5C 6.20895,93.7373 5.20895,93.404 4.5,92.5C 6.25013,89.6446 7.08346,86.3113 7,82.5C 7.71719,83.0442 8.21719,83.7109 8.5,84.5 Z" />
	</g>
	<g>
		<path style="opacity:1" fill="#7d8da2" d="M 87.5,81.5 C 89.604,81.2011 91.604,81.5344 93.5,82.5C 88.6511,83.1448 86.9844,85.6448 88.5,90C 90.1341,90.4935 91.8008,90.6602 93.5,90.5C 93.5,91.5 93.5,92.5 93.5,93.5C 88.1058,94.602 85.1058,92.4353 84.5,87C 84.6132,84.6013 85.6132,82.7679 87.5,81.5 Z" />
	</g>
	<g>
		<path style="opacity:1" fill="#7e8ea3" d="M 117.5,84.5 C 117.5,85.5 117.5,86.5 117.5,87.5C 115.076,87.1924 112.743,87.5258 110.5,88.5C 110.624,89.1067 110.957,89.44 111.5,89.5C 113.369,90.1646 115.369,90.8313 117.5,91.5C 114.005,94.3682 110.838,94.0349 108,90.5C 105.995,83.5098 108.495,80.6764 115.5,82C 116.756,82.4169 117.423,83.2502 117.5,84.5 Z" />
	</g>
	<g>
		<path style="opacity:1" fill="#7e8ea3" d="M 52.5,84.5 C 52.5,85.5 52.5,86.5 52.5,87.5C 49.9407,87.1984 47.6074,87.5318 45.5,88.5C 46.9899,90.2798 48.9899,90.9465 51.5,90.5C 51.5,91.5 51.5,92.5 51.5,93.5C 42.6942,93.536 40.3609,89.7026 44.5,82C 47.9268,80.8343 50.5935,81.6676 52.5,84.5 Z" />
	</g>
	<g>
		<path style="opacity:1" fill="#dbdee1" d="M 46.5,83.5 C 47.675,83.281 48.675,83.6143 49.5,84.5C 48.277,85.6139 46.9437,85.7805 45.5,85C 46.056,84.6174 46.3893,84.1174 46.5,83.5 Z" />
	</g>
	<g>
		<path style="opacity:1" fill="#dadde0" d="M 111.5,83.5 C 112.675,83.281 113.675,83.6143 114.5,84.5C 113.277,85.6139 111.944,85.7805 110.5,85C 111.056,84.6174 111.389,84.1174 111.5,83.5 Z" />
	</g>
	<g>
		<path style="opacity:1" fill="#b7bfc9" d="M 98.5,85.5 C 98.5,88.1667 98.5,90.8333 98.5,93.5C 97.209,93.7373 96.209,93.404 95.5,92.5C 97.0826,90.4922 98.0826,88.1589 98.5,85.5 Z" />
	</g>
	<g>
		<path style="opacity:1" fill="#bec4cd" d="M 52.5,84.5 C 53.4345,85.5676 53.7678,86.901 53.5,88.5C 50.8333,88.5 48.1667,88.5 45.5,88.5C 47.6074,87.5318 49.9407,87.1984 52.5,87.5C 52.5,86.5 52.5,85.5 52.5,84.5 Z" />
	</g>
	<g>
		<path style="opacity:1" fill="#b3bbc6" d="M 117.5,84.5 C 118.434,85.5676 118.768,86.901 118.5,88.5C 115.941,88.1984 113.607,88.5318 111.5,89.5C 110.957,89.44 110.624,89.1067 110.5,88.5C 112.743,87.5258 115.076,87.1924 117.5,87.5C 117.5,86.5 117.5,85.5 117.5,84.5 Z" />
	</g>
	<g>
		<path style="opacity:1" fill="#8492a7" d="M 21.5,81.5 C 29.7443,81.2276 32.0776,84.7276 28.5,92C 22.7441,94.6215 19.4108,92.7882 18.5,86.5C 18.7573,84.3076 19.7573,82.6409 21.5,81.5 Z" />
	</g>
	<g>
		<path style="opacity:1" fill="#ebecec" d="M 22.5,84.5 C 23.8333,84.5 25.1667,84.5 26.5,84.5C 26.5,86.5 26.5,88.5 26.5,90.5C 22.1425,90.4441 20.8092,88.4441 22.5,84.5 Z" />
	</g>
	<g>
		<path style="opacity:1" fill="#c1c7d0" d="M 78.5,84.5 C 79.9331,86.936 79.5998,89.2693 77.5,91.5C 79.7427,92.4742 82.076,92.8076 84.5,92.5C 82.0521,93.4731 79.3854,93.8064 76.5,93.5C 77.4058,90.5641 78.0725,87.5641 78.5,84.5 Z" />
	</g>
</svg>
